<svg xmlns="http://www.w3.org/2000/svg" width="28" height="28"><defs><clipPath id="a"><path data-name="Rectangle 163674" fill="#fff" stroke="#707070" d="M0 0h28v28H0z"/></clipPath></defs><g data-name="Mask Group 89506" clip-path="url(#a)"><path data-name="Path 245724" d="M27.708 10.362 14.06 3.836a.292.292 0 0 0-.234 0L.178 10.362a.274.274 0 0 0 0 .489l3.649 1.745v4.274a1.284 1.284 0 0 0-.582 2.18 1.78 1.78 0 0 0-.943 1.561v2.61a.287.287 0 0 0 .288.272h3.012a.283.283 0 0 0 .288-.272v-2.61a1.78 1.78 0 0 0-.941-1.561 1.281 1.281 0 0 0-.582-2.18v-4.008l-.192-.1-.359-.169v-.171a.269.269 0 0 1 .223-.266q4.918-.905 9.842-1.822l.1.533-9.622 1.778v.207l2.343 1.12v6.634c0 1.223 1.528 1.871 2.49 2.2a14.75 14.75 0 0 0 4.742.685 14.729 14.729 0 0 0 4.742-.685c.957-.326 2.49-.973 2.49-2.2v-6.628l6.536-3.122a.275.275 0 0 0 .006-.494Zm-7.08 7.64c0 1.066-1.756 1.588-2.539 1.816a14.826 14.826 0 0 1-4.149.527 15.319 15.319 0 0 1-4.008-.484c-.816-.228-2.681-.75-2.681-1.86v-3.768l6.569 3.143a.254.254 0 0 0 .234 0l6.574-3.143Z" fill="#ff7350"/></g></svg>