<svg xmlns="http://www.w3.org/2000/svg" width="88" height="88"><defs><clipPath id="a"><path data-name="Rectangle 152657" transform="translate(.287 .287)" fill="#fff" stroke="#707070" d="M0 0h48v48H0z"/></clipPath></defs><g data-name="Group 148961" transform="translate(14299 19170)"><circle data-name="Ellipse 452" cx="44" cy="44" r="44" transform="translate(-14299 -19170)" fill="#ff7350"/><g data-name="Mask Group 13" transform="translate(-14279.287 -19150.287)" clip-path="url(#a)"><path data-name="Path 16317" d="M24.057 4.001A16.063 16.063 0 0 0 8.012 20.046c0 6.528 4.739 11.949 9.759 17.687 1.588 1.817 3.233 3.7 4.7 5.6a2.006 2.006 0 0 0 3.177 0c1.464-1.9 3.109-3.781 4.7-5.6 5.02-5.738 9.759-11.159 9.759-17.687a16.063 16.063 0 0 0-16.05-16.045Zm0 22.061a6.017 6.017 0 1 1 6.017-6.017 6.017 6.017 0 0 1-6.017 6.017Z" fill="#fff"/></g></g></svg>