<svg data-name="Group 76056" xmlns="http://www.w3.org/2000/svg" width="29.089" height="20"><defs><clipPath id="a"><path data-name="Rectangle 164046" fill="#3e4095" d="M0 0h29.089v20H0z"/></clipPath></defs><g data-name="Group 76055" clip-path="url(#a)" fill="#3e4095"><path data-name="Path 282925" d="M0 6.069a1.027 1.027 0 0 1 1.068-.629c.53.016 1.06 0 1.591 0a.877.877 0 0 1 .979.982v12.586a.877.877 0 0 1-.979.99c-.53 0-1.061-.011-1.591 0A1.027 1.027 0 0 1 0 19.37Z"/><path data-name="Path 282926" d="M17.661 16.378a1.938 1.938 0 0 1 1.2.929 1.806 1.806 0 0 1-1.212 2.64 2.363 2.363 0 0 1-.479.047H8.222a3.5 3.5 0 0 1-2.614-1.112.583.583 0 0 1-.148-.368c-.008-3.883 0-7.766-.011-11.649a.421.421 0 0 1 .211-.39c2.86-2 5.725-4 8.572-6.025a1.849 1.849 0 0 1 2.263-.122 1.769 1.769 0 0 1 .185 2.8c-.825.72-1.707 1.381-2.564 2.072-.079.064-.157.13-.3.249H27.141a1.822 1.822 0 0 1 1.867 1.281 1.8 1.8 0 0 1-1.372 2.311 2.976 2.976 0 0 1-.565.044H19.492a2.09 2.09 0 0 1 1.1.8 1.751 1.751 0 0 1 .292 1.3 1.8 1.8 0 0 1-.829 1.255 2.535 2.535 0 0 1-1.526.277c1.122.494 1.59 1.178 1.453 2.073a1.8 1.8 0 0 1-.815 1.276 2.614 2.614 0 0 1-1.5.312"/></g></svg>