<svg xmlns="http://www.w3.org/2000/svg" width="88" height="88"><g data-name="Group 148962" transform="translate(14299 19170)"><circle cx="44" cy="44" r="44" fill="#ff7350" data-name="Ellipse 452" transform="translate(-14299 -19170)"/><g data-name="Group 76065"><g data-name="Group 76063"><path fill="none" d="M-14283-19154h56v56h-56Z" data-name="Path 16315"/><path fill="#fff" d="M-14236.328-19144.68h-37.344a4.663 4.663 0 0 0-4.645 4.67l-.023 28.021a4.683 4.683 0 0 0 4.668 4.67h37.344a4.683 4.683 0 0 0 4.668-4.67v-28.021a4.683 4.683 0 0 0-4.668-4.67Zm-.934 9.924-16.5 10.321a2.36 2.36 0 0 1-2.474 0l-16.504-10.321a1.982 1.982 0 1 1 2.1-3.362l15.64 9.783 15.638-9.784a1.982 1.982 0 1 1 2.1 3.362Z" data-name="Path 16316"/></g></g></g></svg>