<svg xmlns="http://www.w3.org/2000/svg" width="88" height="88"><defs><clipPath id="a"><path fill="#fff" stroke="#707070" d="M-3.713 1.287h48v48h-48z" data-name="Rectangle 152657"/></clipPath><clipPath id="b"><path fill="#fff" stroke="#707070" d="M.42 0h46v46h-46z" data-name="Rectangle 152658"/></clipPath></defs><g data-name="Group 148673"><g data-name="Group 148960" transform="translate(14299 19170)"><circle cx="44" cy="44" r="44" fill="#ff7350" data-name="Ellipse 452" transform="translate(-14299 -19170)"/><g clip-path="url(#a)" data-name="Mask Group 13" transform="translate(-14275.287 -19151.287)"><g clip-path="url(#b)" data-name="Mask Group 14" transform="translate(-3.133 2.287)"><path fill="#fff" d="M42.764 37.105a14.378 14.378 0 0 1-3.914 4.736 5.454 5.454 0 0 1-4.195 1.055c-6.687-1.1-13.27-3.96-19.839-10.246A36.764 36.764 0 0 1 4.494 12.733a5.44 5.44 0 0 1 1.054-4.2 14.29 14.29 0 0 1 4.782-3.951 1.961 1.961 0 0 1 2.787 0l6.5 6.565a2.188 2.188 0 0 1 0 3.042l-4.6 4.857c1.954 4.169 9.171 11.4 13.315 13.352l4.858-4.613a2.187 2.187 0 0 1 3.037 0l6.562 6.457a1.978 1.978 0 0 1-.015 2.863Z" data-name="Path 16318"/></g></g></g></g></svg>