<svg xmlns="http://www.w3.org/2000/svg" width="30" height="30"><path fill="none" d="M0 0h30v30H0Z" data-name="Path 2319"/><path fill="#fff" d="M20.374 12.169a.682.682 0 0 0-.682-.682H2.723a.682.682 0 0 0-.682.682v9.821a3.11 3.11 0 0 0 3.11 3.124h16.49a4.488 4.488 0 0 1-1.269-3.11ZM3.787 14.897a.682.682 0 0 1 .682-.682h6.438a.682.682 0 0 1 .682.682v5.457a.682.682 0 0 1-.682.682H4.469a.682.682 0 0 1-.682-.682Zm13.941 8.853H4.469a.682.682 0 0 1 0-1.364h13.259a.682.682 0 0 1 0 1.364Zm0-2.728h-4.092a.682.682 0 1 1 0-1.364h4.092a.682.682 0 0 1 0 1.364Zm0-2.728h-4.092a.682.682 0 1 1 0-1.364h4.092a.682.682 0 0 1 0 1.364Zm0-2.728h-4.092a.682.682 0 1 1 0-1.364h4.092a.682.682 0 0 1 0 1.364Zm-7.5 4.092H5.151v-4.094h5.074Zm17.73-14.282-.109 16.614a3.11 3.11 0 1 1-6.207 0l.099-11.226a.682.682 0 0 0-.682-.682H9.625V5.376a.682.682 0 0 1 .682-.682h16.969a.682.682 0 0 1 .682.682Z" data-name="Path 346957"/></svg>