<svg xmlns="http://www.w3.org/2000/svg" width="88" height="88"><defs><clipPath id="a"><path fill="#fff" stroke="#707070" d="M.287.287h48v48h-48z" data-name="Rectangle 152657"/></clipPath></defs><g data-name="Group 148963" transform="translate(14299 19170)"><circle cx="44" cy="44" r="44" fill="#ff7350" data-name="Ellipse 452" transform="translate(-14299 -19170)"/><g clip-path="url(#a)" data-name="Mask Group 13" transform="translate(-14279.287 -19150.287)"><path fill="#fff" d="M24.287 5.396a18.89 18.89 0 1 0 18.89 18.89 18.945 18.945 0 0 0-18.89-18.89Zm5.667 20.779h-5.667a1.785 1.785 0 0 1-1.89-1.889v-9.445a1.785 1.785 0 0 1 1.89-1.889 1.785 1.785 0 0 1 1.889 1.889v7.555h3.778a1.785 1.785 0 0 1 1.889 1.889 1.785 1.785 0 0 1-1.889 1.89Z" data-name="Path 346924"/></g></g></svg>