<svg xmlns="http://www.w3.org/2000/svg" width="75.772" height="30"><g data-name="Group 148786"><g data-name="Group 148787" fill="#fff"><path data-name="Path 346958" d="M75.772 23.622a1.1 1.1 0 0 1-1.038.445c-1.631-.015-14.313-.054-15.943 0a8.968 8.968 0 0 0-2.305.361c-3.334 1.022-6.648 2.11-9.977 3.15a9.9 9.9 0 0 1-4.572.089c-3.143-.5-6.291-.972-9.436-1.462a3.456 3.456 0 0 1 .268-6.87c.582-.043 1.17 0 1.753-.033a.862.862 0 0 0 .525-.2q4.291-4.265 8.56-8.551a.752.752 0 0 0 .084-.111l-2.84-2.84L23.7 24.758l2.941 2.942a2.868 2.868 0 0 1 .3-.474c.324-.35.661-.689 1.013-1.011a.669.669 0 0 1 .956-.01.659.659 0 0 1 .03.955 62.298 62.298 0 0 1-1.994 1.988 1.092 1.092 0 0 1-.5.208c-.914.21-1.827.426-2.748.6a6.423 6.423 0 0 1-1.149.044c-1.447 0-20.335-.159-21.782-.167a.693.693 0 0 1-.768-.681.7.7 0 0 1 .757-.7c.538-.013 18.519.161 19.058.161h1.272c.274-1.347.525-2.636.806-3.918a1.308 1.308 0 0 1 .344-.58c.64-.665 1.3-1.316 1.957-1.962a.513.513 0 0 0 .166-.593 5.311 5.311 0 0 1-.2-1.359c-.02-2.078 0-4.157-.01-6.235a4.486 4.486 0 0 1 2.092-3.936q6.5-4.439 12.986-8.89a5.761 5.761 0 0 1 6.314-.37c2.192 1.148 4.372 2.323 6.556 3.486.054.029.109.057.161.09a.723.723 0 0 1 .334.943.7.7 0 0 1-.992.272c-.941-.488-1.873-1-2.809-1.494-1.261-.672-2.528-1.337-3.785-2.018a4.526 4.526 0 0 0-5.079.28q-6.368 4.38-12.758 8.73a3.445 3.445 0 0 0-1.641 3.141c.04 1.97.01 3.941.01 5.912v.65c.2-.184.324-.288.438-.4L41.715 4.621a2.257 2.257 0 0 1 3.642-.006c.479.479.963.952 1.436 1.438a2.2 2.2 0 0 1-.012 3.282 244.332 244.332 0 0 1-3.532 3.522.44.44 0 0 0-.06.69c.519.743 1.006 1.509 1.54 2.317.18-.287.333-.543.5-.79a.693.693 0 1 1 1.175.72c-.894 1.49-1.805 2.97-2.7 4.463a.986.986 0 0 1-.986.443q-4.664-.007-9.328 0a5.807 5.807 0 0 0-.6.02 2.06 2.06 0 0 0-1.871 1.954 2.036 2.036 0 0 0 1.706 2.143q4.463.713 8.935 1.377a26.17 26.17 0 0 0 2.839.3 11.41 11.41 0 0 0 3.839-.9c2.638-.832 5.262-1.708 7.909-2.507a9.643 9.643 0 0 1 2.443-.394c1.737-.059 14.527 0 16.266-.014a.9.9 0 0 1 .913.491Zm-38.775-4.347a.109.109 0 0 0 .069.027c1.783 0 3.566.01 5.348 0a.509.509 0 0 0 .361-.208c.4-.62.772-1.255 1.166-1.905l-1.932-2.926-5.012 5.014m4.844-12.863 2.947 2.926c.351-.346.748-.708 1.111-1.1a.762.762 0 0 0-.013-1.119q-.876-.921-1.795-1.795a.791.791 0 0 0-1.123.008c-.4.359-.775.738-1.131 1.08M22.975 26.212c-.124.584-.273 1.173-.367 1.771a.49.49 0 0 0 .587.618c.617-.076 1.226-.222 1.824-.335l-2.044-2.054"/><path data-name="Path 346959" d="M75.707 8.414a1.219 1.219 0 0 1-1.055.407c-1.877-.017-14.738-.538-16.613-.5a6.863 6.863 0 0 1-3.6-1.264.613.613 0 0 1-.2-.86.622.622 0 0 1 .857-.319 10.694 10.694 0 0 1 1.023.528 4.088 4.088 0 0 0 2.119.527c1.815-.017 14.614.507 16.429.495a1.133 1.133 0 0 1 1.044.437Z"/></g></g></svg>