<svg xmlns="http://www.w3.org/2000/svg" width="317.186" height="76.201" data-name="Group 148763"><defs><clipPath id="a"><path fill="none" d="M0 0h317.186v76.201H0z" data-name="Rectangle 164513"/></clipPath></defs><g clip-path="url(#a)" data-name="Group 148762"><g data-name="Group 148761"><g clip-path="url(#a)" data-name="Group 148760"><g data-name="Group 148759" style="mix-blend-mode:multiply;isolation:isolate"><g data-name="Group 148758"><g clip-path="url(#a)" data-name="Group 148757"><path fill="#3e4095" d="M76.2 38.1A38.1 38.1 0 1 1 38.1 0a38.1 38.1 0 0 1 38.1 38.1" data-name="Path 346954"/><path fill="#fff" d="M36.433 43.101a11.469 11.469 0 0 1-3.661 8.54 11.516 11.516 0 0 1-8.428 3.548 11.58 11.58 0 0 1-9.541-4.437 15.18 15.18 0 0 1-3.435-10.089q0-10.982 18.631-21.184l1.775 2.772q-6.322 5.216-6.322 8.429 0 1 2.662 2a17.1 17.1 0 0 1 5.435 2.772q2.881 2.443 2.884 7.654" data-name="Path 346955"/><path fill="#fff" d="M64.833 43.101a12.041 12.041 0 0 1-3.328 8.54 11.641 11.641 0 0 1-8.539 3.548 11.58 11.58 0 0 1-9.539-4.437 14.88 14.88 0 0 1-3.547-10.089q0-10.982 18.631-21.184l2 2.772q-6.546 5.216-6.544 8.429 0 1 2.883 2a17.1 17.1 0 0 1 5.325 2.772q2.663 2.443 2.662 7.654" data-name="Path 346956"/><path fill="#3e4095" d="M67.988 33.388h249.198v4.534H67.988z" data-name="Rectangle 164510"/></g></g></g></g></g></g></svg>